<?xml version="1.0" encoding="UTF-8" standalone="no"?>
<!DOCTYPE svg PUBLIC "-//W3C//DTD SVG 1.1//EN" "http://www.w3.org/Graphics/SVG/1.1/DTD/svg11.dtd">
<svg width="100%" height="100%" viewBox="0 0 224 256" version="1.1" xmlns="http://www.w3.org/2000/svg" xmlns:xlink="http://www.w3.org/1999/xlink" xml:space="preserve" xmlns:serif="http://www.serif.com/" style="fill-rule:evenodd;clip-rule:evenodd;stroke-linejoin:round;stroke-miterlimit:2;">
    <g transform="matrix(1,0,0,1,-2239.98,-82.2088)">
        <g transform="matrix(0.0806152,0,0,0.0806152,1660.44,85.7263)">
            <g id="_x33__31_" transform="matrix(4.52539,0,0,4.52539,6991.15,-43.633)">
                <g>
                    <path d="M502.714,0.678C500.004,0.678 240.428,0 240.428,0C194.178,0 153,42.425 153,87.429L127.733,88.019C81.505,88.019 43.714,129.853 43.714,174.857L43.714,612C43.714,657.004 84.893,699.428 131.143,699.428L459,699.428C505.249,699.428 546.428,657.004 546.428,612L568.285,612C614.535,612 655.714,569.576 655.714,524.572L655.714,175.382L502.714,0.678ZM459,655.715L131.143,655.715C108.193,655.715 87.429,634.274 87.429,612L87.429,174.857C87.429,142.334 114.182,131.143 153,131.143L153,524.572C153,569.576 194.178,612 240.428,612C240.428,612 477.403,611.76 502.91,611.76C502.91,638.295 485.513,655.715 459,655.715ZM502.714,459.24L306,459.24C293.935,459.24 284.143,449.47 284.143,437.404C284.143,425.34 293.935,415.57 306,415.57L502.714,415.57C514.779,415.57 524.571,425.34 524.571,437.404C524.571,449.471 514.779,459.24 502.714,459.24ZM502.714,350.064L306,350.064C293.935,350.064 284.143,340.293 284.143,328.229C284.143,316.164 293.935,306.394 306,306.394L502.714,306.394C514.779,306.394 524.571,316.164 524.571,328.229C524.571,340.272 514.779,350.064 502.714,350.064ZM546.428,174.857C523.151,174.857 502.714,153.853 502.714,131.143L502.714,44.348L612,174.857L546.428,174.857Z" style="fill:rgb(128,128,128);fill-rule:nonzero;"/>
                </g>
            </g>
        </g>
    </g>
</svg>
