<?xml version="1.0" encoding="UTF-8" standalone="no"?>
<!DOCTYPE svg PUBLIC "-//W3C//DTD SVG 1.1//EN" "http://www.w3.org/Graphics/SVG/1.1/DTD/svg11.dtd">
<svg width="100%" height="100%" viewBox="0 0 246 267" version="1.1" xmlns="http://www.w3.org/2000/svg" xmlns:xlink="http://www.w3.org/1999/xlink" xml:space="preserve" xmlns:serif="http://www.serif.com/" style="fill-rule:evenodd;clip-rule:evenodd;stroke-linejoin:round;stroke-miterlimit:2;">
    <g transform="matrix(1,0,0,1,-2245.16,-408.461)">
        <g transform="matrix(4.2346,0,0,4.2346,-5166.74,50.3228)">
            <g transform="matrix(0.132613,0,0,0.132613,1740.32,79.5743)">
                <path d="M474.667,213.333L293.333,213.333C272.725,213.333 256,230.059 256,250.667L256,474.667C256,495.275 272.725,512 293.333,512L474.667,512C495.275,512 512,495.275 512,474.667L512,250.667C512,230.059 495.275,213.333 474.667,213.333ZM429.333,426.667L333.333,426.667C324.501,426.667 317.333,419.499 317.333,410.667C317.333,401.835 324.501,394.667 333.333,394.667L429.333,394.667C438.165,394.667 445.333,401.835 445.333,410.667C445.333,419.499 438.165,426.667 429.333,426.667ZM429.333,362.667L333.333,362.667C324.501,362.667 317.333,355.499 317.333,346.667C317.333,337.835 324.501,330.667 333.333,330.667L429.333,330.667C438.165,330.667 445.333,337.835 445.333,346.667C445.333,355.499 438.165,362.667 429.333,362.667Z" style="fill:rgb(128,128,128);fill-rule:nonzero;"/>
            </g>
            <g transform="matrix(0.132613,0,0,0.132613,1750.32,84.5743)">
                <path d="M304,64L277.333,64L277.333,58.667C277.333,49.835 270.165,42.667 261.333,42.667L237.781,42.667C230.784,18.069 208.149,0 181.333,0C154.517,0 131.883,18.069 124.885,42.667L101.333,42.667C92.501,42.667 85.333,49.835 85.333,58.667L85.333,64L58.667,64C26.304,64 0,90.304 0,122.667L0,389.333C0,421.696 26.304,448 58.667,448L148.593,448L148.593,212.963C148.593,174.734 179.697,143.63 217.926,143.63L362.667,143.63L362.667,122.667C362.667,90.304 336.363,64 304,64ZM117.333,74.667L138.667,74.667C147.499,74.667 154.667,67.499 154.667,58.667C154.667,43.968 166.635,32 181.333,32C196.032,32 208,43.968 208,58.667C208,67.499 215.168,74.667 224,74.667L245.333,74.667L245.333,101.333C245.333,104.277 242.944,106.667 240,106.667L122.667,106.667C119.723,106.667 117.333,104.277 117.333,101.333L117.333,74.667Z" style="fill:rgb(128,128,128);fill-rule:nonzero;"/>
            </g>
        </g>
    </g>
</svg>
