<?xml version="1.0" encoding="UTF-8" standalone="no"?>
<!DOCTYPE svg PUBLIC "-//W3C//DTD SVG 1.1//EN" "http://www.w3.org/Graphics/SVG/1.1/DTD/svg11.dtd">
<svg width="100%" height="100%" viewBox="0 0 298 279" version="1.1" xmlns="http://www.w3.org/2000/svg" xmlns:xlink="http://www.w3.org/1999/xlink" xml:space="preserve" xmlns:serif="http://www.serif.com/" style="fill-rule:evenodd;clip-rule:evenodd;stroke-linecap:round;stroke-linejoin:round;stroke-miterlimit:1.5;">
    <g transform="matrix(1,0,0,1,-2203.68,-1116.73)">
        <g transform="matrix(0.672165,1.16422,-1.16422,0.672165,1747.16,-2008.77)">
            <path d="M2324.59,745.666C2277.73,745.666 2239.74,783.657 2239.74,830.522C2239.74,877.356 2277.76,915.379 2324.59,915.379C2371.46,915.379 2409.45,877.387 2409.45,830.522C2409.45,877.387 2371.46,915.379 2324.59,915.379C2277.76,915.379 2239.74,877.356 2239.74,830.522C2239.74,783.657 2277.73,745.666 2324.59,745.666Z" style="fill:none;stroke:rgb(128,128,128);stroke-width:37.19px;"/>
        </g>
        <g transform="matrix(-1.97236,1.13874,-1.13874,-1.97236,8449.76,341.743)">
            <path d="M2474.64,966.043L2494.87,994.244L2454.41,994.244L2474.64,966.043Z" style="fill:none;stroke:rgb(128,128,128);stroke-width:21.95px;"/>
        </g>
    </g>
</svg>
