<?xml version="1.0" encoding="UTF-8" standalone="no"?>
<!DOCTYPE svg PUBLIC "-//W3C//DTD SVG 1.1//EN" "http://www.w3.org/Graphics/SVG/1.1/DTD/svg11.dtd">
<svg width="100%" height="100%" viewBox="0 0 276 268" version="1.1" xmlns="http://www.w3.org/2000/svg" xmlns:xlink="http://www.w3.org/1999/xlink" xml:space="preserve" xmlns:serif="http://www.serif.com/" style="fill-rule:evenodd;clip-rule:evenodd;stroke-linecap:round;stroke-linejoin:round;stroke-miterlimit:1.5;">
    <g transform="matrix(1,0,0,1,-2233.52,-766.474)">
        <g transform="matrix(0.521115,0,0,0.521115,2231.78,766.474)">
            <g>
                <path d="M478.213,163.264L431.408,82.325C426.309,72.981 415.301,68.096 403.76,72.362L350.875,93.61C340.827,86.378 330.267,80.234 319.344,75.306L311.301,19.2C309.936,8.256 300.443,0 289.221,0L195.354,0C184.133,0 174.639,8.256 173.295,19.008L165.231,75.285C154.65,80.085 144.26,86.144 133.764,93.61L80.731,72.299C70.534,68.374 58.374,72.79 53.296,82.07L6.405,163.157C0.773,172.714 3.098,185.109 11.845,192.021L56.666,227.05C55.962,233.813 55.621,239.722 55.621,245.333C55.621,250.944 55.962,256.853 56.645,263.616L11.802,298.667C3.247,305.43 0.901,317.419 6.362,327.403L53.167,408.363C58.266,417.686 69.295,422.571 80.836,418.304L133.721,397.056C143.769,404.288 154.329,410.432 165.252,415.36L173.295,471.445C174.639,482.41 184.132,490.666 195.354,490.666L268.869,490.666C272.858,490.666 276.485,488.447 278.32,484.927C280.155,481.407 279.877,477.162 277.616,473.898C261.296,450.517 252.656,423.103 252.656,394.666C252.656,381.397 254.597,368.106 258.437,355.157C259.418,351.829 258.736,348.245 256.581,345.514C254.426,342.805 251.12,341.354 247.642,341.461C246.49,341.525 245.359,341.674 242.458,342.037C189.402,342.037 146.245,298.88 146.245,245.824C146.245,192.768 189.402,149.589 242.458,149.589C295.514,149.589 338.671,192.746 338.479,247.573C338.33,248.704 338.18,249.834 338.116,250.986C337.945,254.463 339.46,257.791 342.169,259.925C344.9,262.08 348.505,262.72 351.812,261.781C372.569,255.594 393.028,254.122 416.196,258.325C419.033,258.837 422.148,257.557 424.537,255.786C426.905,254.015 428.484,250.73 428.804,247.786C428.847,247.402 428.953,245.674 428.953,245.29C428.953,238.655 428.484,232.405 427.929,227.007L472.752,192C481.307,185.259 483.653,173.269 478.213,163.264Z" style="fill:rgb(128,128,128);fill-rule:nonzero;"/>
            </g>
        </g>
        <g transform="matrix(0.295135,0.511189,-0.511189,0.295135,2178.19,-459.729)">
            <path d="M2324.59,745.666C2277.73,745.666 2239.74,783.657 2239.74,830.522C2239.74,877.356 2277.76,915.379 2324.59,915.379C2371.46,915.379 2409.45,877.387 2409.45,830.522C2409.45,877.387 2371.46,915.379 2324.59,915.379C2277.76,915.379 2239.74,877.356 2239.74,830.522C2239.74,783.657 2277.73,745.666 2324.59,745.666Z" style="fill:none;stroke:rgb(128,128,128);stroke-width:35.29px;"/>
        </g>
        <g transform="matrix(-0.866025,0.5,-0.5,-0.866025,5121.18,572.336)">
            <path d="M2474.64,966.043L2494.87,994.244L2454.41,994.244L2474.64,966.043Z" style="fill:none;stroke:rgb(128,128,128);stroke-width:20.83px;"/>
        </g>
    </g>
</svg>
